<svg xmlns="http://www.w3.org/2000/svg" xmlns:xlink="http://www.w3.org/1999/xlink" viewBox="-178.3 759.6 1000 500"><defs><path id="a" d="M79 830.2h485.4V1143H79z"/></defs><clipPath id="b"><use xlink:href="#a" overflow="visible"/></clipPath><path clip-path="url(#b)" fill="#404041" d="M174.3 1025.5h-24.6v67h11v-50.6h2.6v50.6h11.1z"/><g clip-path="url(#b)"><defs><path id="c" d="M79 830.2h485.4V1143H79z"/></defs><clipPath id="d"><use xlink:href="#c" overflow="visible"/></clipPath><path clip-path="url(#d)" fill="#231F20" d="M162 957.7c32.5 0 47.2-13 47.2-47.6 0-32.1-39.3-46-67.1-29.6-17.8-2.3-27.2 8.1-27.2 29.6-.1 34.6 14.6 47.6 47.1 47.6"/><path clip-path="url(#d)" fill="#FFE1C1" d="M171.1 920.3c-11.4 2-22-2.2-25.9-8-15.8.7-18.3 14.6-17.8 24.6.7 8.5 2 16.3 4.3 19.8 5 7.5 17.1 14.6 30.2 14.6s25.3-7.1 30.2-14.6c2.7-4.1 4-14 4.6-24.2-4.1-12.6-12.2-14.6-25.6-12.2"/><path clip-path="url(#d)" fill="#58595B" d="M161.9 961.9c-7.5 0-12-3.4-13.9-5.4-.8-.8-.8-2.1 0-3 .8-.8 2.1-.8 3 0 1.9 1.9 5.3 4.1 11 4.1s9.1-2.2 11-4.1c.8-.8 2.1-.8 3 0 .8.8.8 2.1 0 3-2.1 2.1-6.6 5.4-14.1 5.4"/><path clip-path="url(#d)" fill="#FFE1C1" d="M128.5 1026.9c-1 3-.2 5.9 1.7 6.5 1.9.7 4.3-1.2 5.3-4.2 1.3-3.9.2-5.9-1.7-6.5s-4 .4-5.3 4.2"/><path clip-path="url(#d)" fill="#FFE1C1" d="M128.9 1023.4c-1.1.8-2.1 2.4-1.6 3.1.5.8 2.4.4 3.5-.3 1.1-.8 1.1-1.7.6-2.5-.5-.8-1.3-1.1-2.5-.3m44.3-45.8c-1.9-1.1-4.3-1.7-5.9-2l-.3-7.1h-10l-.3 7.1c-1.6.3-4 .9-5.9 2v5h22.6v-5zm39-1.9c2.4-2 5.4-2.3 6.7-.7 1.3 1.6.4 4.5-2.1 6.4-3.2 2.6-5.4 2.3-6.7.7-1.2-1.5-1-3.8 2.1-6.4"/><path clip-path="url(#d)" fill="#FFE1C1" d="M209.1 977.4c.3-1.3 1.5-2.8 2.4-2.6.9.2 1.2 2.1.9 3.4-.3 1.3-1.2 1.7-2.1 1.4-1-.2-1.6-.9-1.2-2.2"/><path clip-path="url(#d)" fill="#E6E7E8" d="M162 982.2l5.4-6.6c3.8 0 7.8.3 11.1 2.2 2.2 1.2 11.4 8.8 14 8.8 2 0 16.5-8.2 16.5-8.2l4.5 5s-14.7 10.7-20.4 11.1c-5.6.4-17.9-6.7-17.9-6.7l-.9 36.1h-24.5l-1.6-32.2-12.2 32.8-6.5-1.5s12.2-40.4 15.4-44.7c2.2-2.9 8-2.9 11.8-2.9l5.3 6.8"/><path clip-path="url(#d)" fill="#58595B" d="M147.4 938c0-3-2.4-5.4-5.4-5.4-3 0-5.4 2.4-5.4 5.4s2.4 5.4 5.4 5.4c3 .1 5.4-2.4 5.4-5.4m40 0c0-3-2.4-5.4-5.4-5.4-3 0-5.4 2.4-5.4 5.4s2.4 5.4 5.4 5.4c2.9.1 5.4-2.4 5.4-5.4"/><path clip-path="url(#d)" fill="#FFF" d="M156.6 975.6h-1.4l-3.3 6.5 10.1.1zm10.7 0h1.5l3.2 6.5-10 .1z"/><path clip-path="url(#d)" fill="#404041" d="M174.7 1098h-11.8l.7-5.5H174z"/><path clip-path="url(#d)" fill="#58595B" d="M162.8 1098c0-3.3 2.7-6.1 6.1-6.1 3.3 0 6.1 2.7 6.1 6.1h-12.2z"/><path clip-path="url(#d)" fill="#404041" d="M162.8 1098h12.1v1.8h-12.1zm-1.8 0h-11.7l.6-5.5h10.5z"/><path clip-path="url(#d)" fill="#58595B" d="M149.1 1098c0-3.3 2.7-6.1 6.1-6.1 3.3 0 6.1 2.7 6.1 6.1h-12.2z"/><path clip-path="url(#d)" fill="#404041" d="M149.1 1098h12.1v1.8h-12.1z"/><path clip-path="url(#d)" fill="#DBDCDD" d="M161 982.2h1.9v40.9H161z"/><path clip-path="url(#d)" fill="#231F20" d="M149.5 1023.7h24.9v2.3h-24.9z"/><path clip-path="url(#d)" fill="#A6A8AB" d="M159.3 1023h5.3v3.4h-5.3z"/><path clip-path="url(#d)" fill="#909091" d="M189.8 974h55.5v1.5h-55.5z"/><path clip-path="url(#d)" fill="#777" d="M251.5 971.1c0 1.6-1.3 2.9-2.9 2.9h-62.1c-1.6 0-2.9-1.3-2.9-2.9h67.9z"/><path clip-path="url(#d)" fill-rule="evenodd" clip-rule="evenodd" d="M238.2 967.6V962c0-4.7-7.1-14-15.8-14h-8.7c-8.7 0-15.8 9.4-15.8 14v5.6h40.3z"/><path clip-path="url(#d)" fill-rule="evenodd" clip-rule="evenodd" fill="#6A259A" d="M197.9 962.8h40.2v4.8h-40.2z"/><path clip-path="url(#d)" fill-rule="evenodd" clip-rule="evenodd" d="M240.2 971.1H196c-.9 0-1.6-.7-1.6-1.6v-.3c0-.9.7-1.6 1.6-1.6h43.6c.9 0 1.6.7 1.6 1.6v.9c0 .5-.4 1-1 1"/><path clip-path="url(#d)" fill="#231F20" d="M375.2 1036.7c0 1-.9 1.5-2.6 1.5-1.2 0-2.2-.1-3.1-.2l-22.2-.7-22.3.7c-.8.1-1.7.2-2.6.2-2.3 0-3.5-.6-3.5-1.8 0-1.3 1.6-2 4.7-2 10.2-.1 15.4-1.1 15.4-3.1 0-.1-.1-.6-.4-1.4l-1.4-4.6-.9-2.4c-1-3.6-3.6-11.6-7.7-24h-37.3c-7 18.6-10.5 29.3-10.5 32.1 0 1.6.7 2.6 2.1 3 .3.1 3.3.3 8.7.7 3.4.1 5.1.7 5.1 1.7 0 1.2-1.5 1.7-4.5 1.7-5.4 0-11.6-.2-18.7-.7-1.7-.1-3.6-.2-5.4-.2-1.9 0-3.7.2-5.4.6-.9.2-1.7.3-2.3.3-1.6 0-2.4-.5-2.4-1.6s1.8-1.6 5.5-1.8c3.7-.1 6.3-.7 7.9-1.7 1.6-1 2.9-2.9 3.8-5.7 15-43 27.2-77.5 36.6-103.6.3-1.4.8-2.9 1.6-4.6l.7-3.2c.3-1.3.8-1.9 1.4-1.9.3 0 .6.3.9 1 1.5 4.5 4.9 14 10.3 28.5 4.2 11.3 14.6 39.6 31.3 85.1.9 2.6 2.1 4.3 3.6 5 1.5.7 4.5 1.1 9 1.3 3 .2 4.6.8 4.6 1.8m-47.4-41.9c-1.9-5.2-5-13.9-9.4-26l-8.4-24.2c-4.9 12.9-10.8 29.6-17.7 50.2h35.5z"/><path clip-path="url(#d)" fill="#231F20" d="M406.8 1036.6c0 1-.8 1.6-2.3 1.6h-2.1c-.2 0-3.3-.1-9.3-.3h-5.4c-.9 0-5.6.1-14 .3-.7.1-1.4.1-2.1.1-1.7.1-2.6-.4-2.6-1.5 0-.8.6-1.1 1.9-1.1h4.5c3.3 0 4.9-.7 4.9-2.1.1-.7.2-5.2.2-13.6v-88.9c0-3.8-.1-5.9-.3-6.3-.4-.9-1.3-1.4-2.8-1.4h-6.3c-1.6 0-2.4-.5-2.4-1.5 0-.9 1.5-1.4 4.4-1.5 5.6-.3 10.8-1.6 15.5-3.8l3.7-1.7 1.4-.5c.9 3.4 1.3 8.5 1.2 15.4v98c0 3.5.1 5.6.2 6.2.1.6.5 1.1 1.2 1.3.1.1 2.3.2 6.5.3 2.6-.2 4 .2 4 1m64.6-108.7c0 2.4-.7 4.5-2.2 6-1.5 1.6-3.3 2.4-5.7 2.4-2.2 0-4.1-.7-5.6-2.1-1.5-1.4-2.3-3.1-2.3-5.2 0-1.7.8-3.8 2.3-6.1.3-.6.5-1.1.5-1.6 0-2.7-1.9-4-5.7-4-6.5 0-10.7 4.2-12.8 12.6-1 4.4-1.6 12.2-1.6 23.2v8.6h11.4c2.3 0 3.5.5 3.5 1.5s-1.5 1.5-4.5 1.5h-10.4v68.5c0 1.6 1.6 2.5 4.8 2.5 4.9-.1 7.6.1 8.1.7.1.1.2.3.2.7 0 .8-.7 1.2-2.1 1.2-.7 0-1.3-.1-1.7-.2l-14.3.2h-19c-2.1 0-3.1-.4-3.1-1.2 0-.9.8-1.4 2.5-1.4 6 0 9.3-.3 9.9-1 .2-.2.4-.6.4-1l-.2-2.3V965c-4.3 0-6.8-.1-7.5-.2-.7-.1-1-.6-1-1.4 0-1 1-1.6 3.1-1.6h5.6c.5-14.8 2.4-25.4 5.9-32 5.4-10 13.4-15 24.1-15 5.1 0 9.3 1.2 12.6 3.7 3.2 2.3 4.8 5.5 4.8 9.4"/><path clip-path="url(#d)" fill="#231F20" d="M528.7 962.7c0 .8-1.4 1.3-4.2 1.4-2.8.1-4.6.4-5.3.7-.8.4-1.4 1.4-2 3L516 971l-1.4 4.4c-1.6 5.4-4.1 13.3-7.3 23.9-9.2 29.6-16.8 52.5-22.9 68.8-3.7 9.9-8.9 14.8-15.4 14.8-2.8 0-5.1-.8-6.9-2.4-1.8-1.6-2.7-3.7-2.7-6.3 0-2.2.7-4 2.2-5.4 1.5-1.4 3.3-2.1 5.7-2.1 3.1 0 5.4 1.3 6.8 3.8 1 2 1.9 3 2.6 3 1 0 2.7-2.9 4.9-8.6 3.3-8.5 5.8-16.1 7.7-22.9-8.6-22.6-16-42.3-22-59.2-4.2-11.5-6.5-17.3-7-17.5-.7-.6-2.6-.9-5.7-.9s-4.6-.6-4.6-1.7c0-.9.8-1.4 2.3-1.4 1.3 0 3.3.1 5.9.4 2.7.2 4.7.3 6.1.3h3.1c2.4-.2 5.8-.3 10.1-.5l8.9-.2c1.3 0 1.9.5 1.9 1.5 0 .9-2.2 1.4-6.5 1.5-3.6.1-5.4.7-5.4 1.7 0 .9 1.2 4.5 3.6 10.7.9 2.7 1.9 5.5 2.9 8.4l3.1 8.7c.8 2.6 2.9 8.4 6.3 17.5 1.2 2.8 2.5 6.2 4 10.2 11.2-35.1 16.8-53.5 16.8-55.2 0-1.1-.4-1.7-1.3-1.9-.9-.2-3.4-.4-7.5-.4-1.2 0-1.8-.5-1.8-1.4 0-.8.7-1.2 2.1-1.2.6 0 1 .1 1.4.2 4 .3 7.2.5 9.8.5h4.9c2.1 0 3.5-.1 4.1-.3.6-.2 1.4-.4 2.4-.4 1 .1 1.5.5 1.5 1.3"/></g></svg>