<svg xmlns="http://www.w3.org/2000/svg" viewBox="-125.3 719.6 900 580"><path fill="#404041" d="M51.3 1081.8H5.7v124.1h20.5v-93.8h4.9v93.8h20.4z"/><path fill="#231F20" d="M28.5 956c60.2 0 87.4-24.1 87.4-88.3 0-59.5-72.9-85.4-124.4-54.9-32.9-4.3-50.5 14.9-50.5 54.9.1 64.2 27.3 88.3 87.5 88.3z"/><path fill="#FFE1C1" d="M45.5 886.6c-21.2 3.7-40.8-4-48.1-14.9-29.4 1.2-34 27.1-32.9 45.6 1.4 15.8 3.7 30.2 8 36.7 9.2 13.9 31.8 27 56 27s46.8-13.1 56-27c5-7.6 7.4-26 8.6-44.9-7.9-23.2-22.8-26.8-47.6-22.5z"/><path fill="#58595B" d="M28.4 963.8c-13.9 0-22.2-6.2-25.9-9.9-1.5-1.5-1.5-4 0-5.5s4-1.5 5.5 0c3.5 3.5 9.8 7.6 20.4 7.6s16.9-4.2 20.4-7.6c1.5-1.5 4-1.5 5.5 0s1.5 4 0 5.5c-3.7 3.7-12 9.9-25.9 9.9z"/><g fill="#FFE1C1"><path d="M-33.5 1084.4c-1.8 5.5-.4 10.9 3.2 12.1 3.6 1.2 8-2.3 9.9-7.7 2.4-7.2.4-10.9-3.2-12.1-3.7-1.3-7.5.4-9.9 7.7z"/><path d="M-32.7 1077.8c-2.1 1.4-4 4.4-3 5.8 1 1.4 4.4.8 6.5-.6 2.1-1.4 2.1-3.1 1.2-4.6-1-1.5-2.6-2.1-4.7-.6z"/></g><path fill="#FFE1C1" d="M49.4 992.9c-3.5-2-8-3.2-11-3.7l-.6-13.2H19.2l-.6 13.1c-3 .5-7.5 1.7-11 3.7v9.3h41.8v-9.2z"/><g fill="#FFE1C1"><path d="M121.7 989.4c4.5-3.6 10.1-4.2 12.5-1.2 2.4 3 .7 8.3-3.8 11.9-5.9 4.8-10.1 4.2-12.5 1.2-2.4-2.9-2.1-7.1 3.8-11.9z"/><path d="M115.8 992.5c.6-2.5 2.7-5.2 4.4-4.8 1.7.4 2.3 3.8 1.7 6.3-.6 2.5-2.2 3.1-3.9 2.7-1.7-.5-2.8-1.7-2.2-4.2z"/></g><path fill="#E6E7E8" d="M28.5 1001.3l10-12.2c7 0 14.4.6 20.6 4 4.1 2.3 21.1 16.3 25.9 16.3 3.7 0 30.7-15.3 30.7-15.3l8.3 9.3s-27.3 19.9-37.8 20.6c-10.4.7-33.2-12.4-33.2-12.4l-1.7 67H5.8l-3-59.6-22.7 60.8-12-2.7s22.7-74.9 28.6-82.8c4-5.3 14.8-5.3 21.8-5.3l10 12.3"/><path d="M1.5 919.5c0-5.6-4.5-10.1-10.1-10.1s-10.1 4.5-10.1 10.1 4.5 10.1 10.1 10.1 10.1-4.5 10.1-10.1zm74.1 0c0-5.6-4.5-10.1-10.1-10.1s-10.1 4.5-10.1 10.1 4.5 10.1 10.1 10.1 10.1-4.5 10.1-10.1z" fill="#58595B"/><path fill="#FFF" d="M18.5 989.2h-2.6l-6.1 12 18.7.1zm19.9 0h2.7l6 12-18.6.1z"/><path fill="#404041" d="M52.1 1216H30.3l1.2-10.1h19.4z"/><path fill="#58595B" d="M30.1 1216c0-6.2 5-11.2 11.2-11.2s11.2 5 11.2 11.2H30.1z"/><path fill="#404041" d="M30.1 1216h22.5v3.3H30.1zm-3.4 0H4.9l1.3-10.1h19.3z"/><path fill="#58595B" d="M4.7 1216c0-6.2 5-11.2 11.2-11.2s11.2 5 11.2 11.2H4.7z"/><path fill="#404041" d="M4.7 1216h22.5v3.3H4.7z"/><path fill="#DBDCDD" d="M26.8 1001.3h3.6v75.8h-3.6z"/><path fill="#231F20" d="M5.4 1078.3h46.1v4.2H5.4z"/><path fill="#A6A8AB" d="M23.6 1077.1h9.9v6.4h-9.9z"/><path fill="#909091" d="M80 986.3h103v2.8H80z"/><path fill="#777" d="M194.5 980.9c0 3-2.4 5.4-5.4 5.4H73.9c-3 0-5.4-2.4-5.4-5.4h126z"/><g fill-rule="evenodd" clip-rule="evenodd"><path d="M169.8 974.3V964c0-8.7-13.1-26-29.2-26h-16.2c-16.1 0-29.2 17.3-29.2 26v10.3h74.6z"/><path fill="#6A259A" d="M95.1 965.4h74.6v8.8H95.1z"/><path d="M173.5 980.8H91.7c-1.6 0-2.9-1.3-2.9-2.9v-.6c0-1.6 1.3-2.9 2.9-2.9h80.8c1.6 0 2.9 1.3 2.9 2.9v1.6c.1 1-.8 1.9-1.9 1.9z"/></g><g fill="#231F20"><path d="M423.8 1102.4c0 1.8-1.6 2.8-4.9 2.8-2.2 0-4.1-.1-5.8-.3l-41.1-1.3-41.1 1.3c-1.5.2-3.1.3-4.9.3-4.3 0-6.5-1.1-6.5-3.4 0-2.5 2.9-3.7 8.7-3.7 19-.2 28.5-2.1 28.5-5.7 0-.2-.2-1.1-.7-2.5l-2.6-8.6-1.7-4.5c-1.9-6.7-6.7-21.5-14.2-44.4h-69.2c-12.9 34.5-19.4 54.4-19.4 59.6 0 3 1.3 4.9 3.9 5.5.6.2 6 .6 16.2 1.3 6.3.2 9.4 1.3 9.4 3.2 0 2.2-2.8 3.2-8.4 3.2-9.9 0-21.5-.4-34.7-1.3-3.2-.2-6.6-.3-10-.3-3.5 0-6.8.4-10 1.1-1.7.4-3.1.5-4.2.5-3 0-4.5-1-4.5-2.9s3.4-3 10.2-3.2c6.8-.2 11.7-1.2 14.7-3.1 3-1.8 5.4-5.4 7.1-10.6 27.8-79.7 50.4-143.7 67.8-192.1.5-2.5 1.5-5.4 3-8.6l1.4-5.9c.6-2.4 1.5-3.6 2.6-3.6.6 0 1.2.6 1.6 1.9 2.8 8.4 9.2 26 19.1 52.8 7.8 20.9 27.1 73.5 58 157.7 1.7 4.9 3.9 8 6.6 9.3 2.7 1.3 8.3 2.1 16.7 2.3 5.6.3 8.4 1.4 8.4 3.2zm-87.8-77.5c-3.5-9.7-9.3-25.8-17.5-48.3L303 931.7c-9.1 23.9-20 54.9-32.8 93.2H336z"/><path d="M482.4 1102.3c0 1.9-1.4 2.9-4.2 2.9h-3.9c-.4 0-6.2-.2-17.2-.6h-10c-1.7 0-10.4.2-25.9.5-1.3.1-2.6.2-3.9.2-3.2.2-4.9-.7-4.9-2.7 0-1.4 1.2-2.1 3.6-2.1h8.4c6 0 9.1-1.3 9.1-3.9.2-1.3.3-9.7.3-25.3v-165c0-7.1-.2-11-.6-11.7-.6-1.7-2.4-2.6-5.2-2.6h-11.7c-3 0-4.5-.9-4.5-2.8 0-1.6 2.7-2.6 8.1-2.8 10.4-.6 20-3 28.8-7.1l6.8-3.2 2.6-1c1.7 6.3 2.5 15.8 2.3 28.5v181.7c0 6.5.1 10.3.3 11.5.2 1.2 1 2 2.3 2.4.2.2 4.2.4 12 .6 4.9.2 7.4.9 7.4 2.5zm119.8-201.5c0 4.5-1.4 8.3-4 11.2-2.7 2.9-6.2 4.4-10.5 4.4-4.1 0-7.6-1.3-10.4-3.9-2.8-2.6-4.2-5.8-4.2-9.7 0-3.2 1.4-7 4.2-11.3.6-1.1 1-2 1-2.9 0-5-3.5-7.4-10.6-7.4-12 0-19.9 7.8-23.8 23.3-1.9 8.2-2.9 22.6-2.9 43.1v15.9h21.1c4.3 0 6.4.9 6.4 2.8 0 1.8-2.8 2.8-8.3 2.8H541V1096c0 3 3 4.5 8.9 4.5 9.2-.2 14.2.2 15 1.3.2.2.3.6.3 1.3 0 1.5-1.3 2.3-3.9 2.3-1.3 0-2.4-.1-3.2-.3l-26.6.3h-35.3c-3.9 0-5.8-.8-5.8-2.3 0-1.7 1.6-2.6 4.7-2.6 11.1 0 17.2-.6 18.3-1.9.4-.4.7-1.1.7-1.9l-.3-4.2V969.1c-8 0-12.6-.1-13.9-.3-1.3-.2-1.9-1.1-1.9-2.6 0-1.9 1.9-2.9 5.8-2.9h10.4c.9-27.4 4.5-47.2 11-59.3 9.9-18.6 24.8-27.9 44.7-27.9 9.5 0 17.3 2.3 23.3 6.8 6 4.6 9 10.6 9 17.9z"/><path d="M708.4 965.3c0 1.5-2.6 2.4-7.8 2.6-5.2.2-8.5.7-9.9 1.3-1.4.7-2.6 2.5-3.7 5.6l-2.3 5.9-2.6 8.1c-3 9.9-7.6 24.7-13.6 44.4-17.1 54.8-31.2 97.4-42.4 127.6-6.9 18.3-16.4 27.5-28.5 27.5-5.2 0-9.4-1.5-12.8-4.5-3.3-3-5-6.9-5-11.7 0-4.1 1.3-7.4 4-10 2.7-2.6 6.2-3.9 10.5-3.9 5.8 0 10 2.4 12.6 7.1 1.9 3.7 3.6 5.5 4.9 5.5 1.9 0 5-5.3 9.1-15.9 6-15.8 10.8-29.9 14.3-42.4-16-41.9-29.6-78.5-40.8-109.8-7.8-21.4-12.1-32.2-13-32.4-1.3-1.1-4.8-1.6-10.5-1.6s-8.6-1.1-8.6-3.2c0-1.7 1.4-2.6 4.2-2.6 2.4 0 6 .2 11 .6 5 .4 8.7.6 11.3.6h5.8c4.5-.3 10.8-.6 18.8-.9l16.5-.4c2.4 0 3.6.9 3.6 2.8 0 1.6-4 2.5-12 2.8-6.7.2-10 1.3-10 3.2 0 1.7 2.2 8.3 6.6 19.8 1.7 5 3.5 10.2 5.4 15.6l5.7 16.1c1.5 4.8 5.4 15.6 11.7 32.5 2.2 5.2 4.7 11.5 7.3 18.8 20.7-65 31.1-99.1 31.1-102.4 0-2-.8-3.1-2.4-3.6-1.6-.4-6.2-.7-13.9-.7-2.2 0-3.3-.9-3.3-2.6 0-1.5 1.3-2.3 3.9-2.3 1.1 0 1.9.1 2.6.4 7.3.6 13.4.9 18.1.9h9.1c3.9 0 6.4-.2 7.6-.6 1.2-.4 2.6-.6 4.4-.6 2.1.1 3 .9 3 2.4z"/></g></svg>